<svg xmlns="http://www.w3.org/2000/svg" version="1.0" viewBox="0 0 512 512">
  <path d="m203.5 146.6-3.7 4.5 4 3.5c5 4.2 7.7 10.7 6.9 16.6-.7 5.4-3.3 8.8-8.7 11.5l-4.4 2.3H90v14h26l-6 6.1c-7.4 7.5-13.4 17.4-16.7 27.6-3.2 9.8-3.6 26.1-1 36.2 3.8 14 15.1 30.4 26.4 38.2 12.2 8.5 24.2 12.2 38.8 12.3 12.5 0 18.5-1.4 30.4-7.1 17.3-8.3 31-25.2 35.7-44.3 2-7.8 2.2-21.2.5-29.5-2.1-10.3-9.3-23.6-17.1-31.9-3.9-4-7-7.6-7-8 0-.3 1-.6 2.3-.6 3.4-.1 10.8-3.8 14.5-7.3 9.1-8.7 11.1-22.3 5-34.4-2.1-4.1-11.9-14.3-13.8-14.3-.4 0-2.4 2.1-4.5 4.6zm-22.6 56.1c14.4 6.9 26 21.6 29.2 37.2 1.8 8.9.7 23.3-2.5 31.1-8.8 21.6-30.3 35.2-53.1 33.7-23.2-1.7-41.4-16.5-48.1-39.2-2.5-8.3-2.2-21.9.5-30.6 4.3-13.5 15.4-26.2 28.3-32.4l7.2-3.5h30.9l7.6 3.7z"/>
  <path d="M149.5 242.3c-4.2 4.2-5.3 9.2-3 14 4.7 10 18.3 10 22.7 0 3.9-8.8-1.7-17.3-11.4-17.3-4.3 0-5.4.4-8.3 3.3zm250.2-95.7-3.6 4.5 3.9 3.5c9.5 8.6 9.4 20.6-.3 27.8-2.8 2.1-3.8 2.1-58.3 2.4l-55.5.2.3 6.8.3 6.7 12.8.3 12.9.3-6.9 7.2c-12.3 12.9-18.5 28.3-18.6 45.7-.1 18.6 6.5 34.4 19.7 47.5 13.8 13.7 28.3 19.8 47.6 19.8 19.1.1 33.9-6.1 47.6-19.7 26.8-26.9 26.6-68.6-.3-95.2-2.9-2.9-5.3-5.5-5.3-5.8 0-.3 1-.6 2.3-.6 4.1 0 12.2-4.7 16.4-9.3 7.2-8.3 8.9-20.9 3.9-31-2.4-5-12.3-15.7-14.4-15.7-.5 0-2.5 2.1-4.5 4.6zM377.8 203c13.7 6.9 24.8 20.9 28.3 35.5 2.6 11.6.9 26.6-4.3 37-5.9 11.7-18.1 22.4-30.6 26.7-9.5 3.3-26 3.2-34.7-.2-17-6.6-29.7-20.2-33.9-36.5-2.1-7.7-2-21.6 0-28.6 4.4-15 14.7-27.4 28.5-34.3l7.2-3.6h31.5l8 4z"/>
  <path d="M346.1 241.6c-6.9 5.8-5.6 17 2.4 20.8 13.1 6.2 24.3-9.8 14-20.1-2.9-2.9-4-3.3-8.3-3.3-4 0-5.7.6-8.1 2.6zM263 332.1c-20.9.8-25.8 1.5-29.1 4.5-2.5 2.2-2.6 5.9-.2 5 3.1-1.2 20.7-2.5 34-2.6 15.5 0 18.6-.8 18.1-4.7-.2-1.4-.7-2.7-1.3-2.8-.5-.1-10.2.2-21.5.6z"/>
</svg>
