<?xml version="1.0" standalone="no"?>
<!DOCTYPE svg PUBLIC "-//W3C//DTD SVG 20010904//EN"
 "http://www.w3.org/TR/2001/REC-SVG-20010904/DTD/svg10.dtd">
<svg version="1.0" xmlns="http://www.w3.org/2000/svg"
 width="1200.000000pt" height="1200.000000pt" viewBox="0 0 1200.000000 1200.000000"
 preserveAspectRatio="xMidYMid meet">
<metadata>
Created by potrace 1.11, written by Peter Selinger 2001-2013
</metadata>
<g transform="translate(0.000000,1200.000000) scale(0.100000,-0.100000)"
fill="#000000" stroke="none">
<path d="M0 11965 c0 -8 5 -15 10 -15 7 0 10 -1990 10 -5950 0 -3960 -3 -5950
-10 -5950 -5 0 -10 -7 -10 -15 0 -13 679 -15 5994 -15 5889 0 6078 1 5998 28
-16 5 -17 11902 -2 11902 6 0 10 7 10 15 0 13 -676 15 -6000 15 -5324 0 -6000
-2 -6000 -15z"/>
</g>
</svg>
